<?xml version="1.0" encoding="utf-8"?>
<!-- Generator: Adobe Illustrator 28.2.0, SVG Export Plug-In . SVG Version: 6.00 Build 0)  -->
<svg version="1.1" id="Layer_1" xmlns="http://www.w3.org/2000/svg" xmlns:xlink="http://www.w3.org/1999/xlink" x="0px" y="0px"
	 viewBox="0 0 150.7 160.2" style="enable-background:new 0 0 150.7 160.2;" xml:space="preserve">
<style type="text/css">
	.st0{opacity:0.2;fill:#BAE6FD;}
</style>
<path class="st0" d="M114.6,25.3C124.9,37.2,131,50.6,137.9,64c6.9,13.5,14.7,27,12.4,38.8c-2.2,11.8-14.3,21.8-25,31.9
	c-10.7,10.2-19.8,20.4-31.1,24c-11.3,3.6-24.7,0.6-36.8-4.2c-12-4.8-22.8-11.4-30.9-20.4C18.3,125,12.9,113.5,7.9,100
	C2.8,86.4-1.7,70.8,0.7,55.4C3,39.9,12.3,24.6,25.8,14.2C39.4,3.7,57.1-1.8,73.3,0.6C89.6,3,104.2,13.4,114.6,25.3z"/>
</svg>
